HIERARCHY
ROOT Hips
{
  OFFSET 95.9546 95.7263 130.135
  CHANNELS 6 Xposition Yposition Zposition Zrotation Xrotation Yrotation
  JOINT Spine
  {
    OFFSET 10.2832 1.67858 -0.048102
    CHANNELS 3 Zrotation Xrotation Yrotation
    JOINT Spine1
    {
      OFFSET 12.2747 3.29442 1.09098
      CHANNELS 3 Zrotation Xrotation Yrotation
      JOINT Neck
      {
        OFFSET 31.2239 8.00151 -0.587386
        CHANNELS 3 Zrotation Xrotation Yrotation
        JOINT Head
        {
          OFFSET 9.52751 0.295786 -0.907742
          CHANNELS 3 Zrotation Xrotation Yrotation
          End Site
          {
            OFFSET 16.4037 0.791643 2.7358
          }
        }
      }
      JOINT LeftShoulder
      {
        OFFSET 28.911 5.13152 2.01494
        CHANNELS 3 Zrotation Xrotation Yrotation
        JOINT LeftArm
        {
          OFFSET 1.20734 -0.998971 20.1238
          CHANNELS 3 Zrotation Xrotation Yrotation
          JOINT LeftForeArm
          {
            OFFSET 26.8049 -0.0536703 -0.155908
            CHANNELS 3 Zrotation Xrotation Yrotation
            JOINT LeftHand
            {
              OFFSET 26.6817 0 0.320147
              CHANNELS 3 Zrotation Xrotation Yrotation
              End Site
              {
                OFFSET 18.6119 0 0.382219
              }
            }
          }
        }
      }
      JOINT RightShoulder
      {
        OFFSET 28.9463 4.89009 -3.10871
        CHANNELS 3 Zrotation Xrotation Yrotation
        JOINT RightArm
        {
          OFFSET 2.83739 -1.17114 -18.7564
          CHANNELS 3 Zrotation Xrotation Yrotation
          JOINT RightForeArm
          {
            OFFSET 28.839 -0.0548439 1.22491
            CHANNELS 3 Zrotation Xrotation Yrotation
            JOINT RightHand
            {
              OFFSET 26.5114 0 -0.101894
              CHANNELS 3 Zrotation Xrotation Yrotation
              End Site
              {
                OFFSET 18.2168 0 0
              }
            }
          }
        }
      }
    }
  }
  JOINT LeftUpLeg
  {
    OFFSET -2.09119 -9.33082 -10.081
    CHANNELS 3 Zrotation Xrotation Yrotation
    JOINT LeftLeg
    {
      OFFSET 2.55951 -42.0585 -8.02213
      CHANNELS 3 Zrotation Xrotation Yrotation
      JOINT LeftFoot
      {
        OFFSET 3.16357 -42.5282 -3.95426
        CHANNELS 3 Zrotation Xrotation Yrotation
        JOINT LeftToeBase
        {
          OFFSET 0.346054 -6.02161 12.8035
          CHANNELS 3 Zrotation Xrotation Yrotation
          End Site
          {
            OFFSET 0.134235 -1.35082 5.13018
          }
        }
      }
    }
  }
  JOINT RightUpLeg
  {
    OFFSET -2.27102 -8.83155 10.7989
    CHANNELS 3 Zrotation Xrotation Yrotation
    JOINT RightLeg
    {
      OFFSET -2.56294 -42.0364 -7.94377
      CHANNELS 3 Zrotation Xrotation Yrotation
      JOINT RightFoot
      {
        OFFSET -3.0952 -42.555 -4.02241
        CHANNELS 3 Zrotation Xrotation Yrotation
        JOINT RightToeBase
        {
          OFFSET -0.0828122 -6.13587 12.8035
          CHANNELS 3 Zrotation Xrotation Yrotation
          End Site
          {
            OFFSET -0.131328 -1.35082 5.13018
          }
        }
      }
    }
  }
}
MOTION
Frames:	21
Frame Time:	0.0333333
-295.315 90.6656 -275.721 50.285 -42.7855 -26.6403 -167.466 14.6831 177.556 -2.62027 27.2001 1.32001 -155.455 15.9223 176.668 -154.759 56.0001 -162.428 0.715845 -11.9315 -29.8662 -86.8876 55.5355 -44.9081 10.8366 3.13645 -73.583 0.420957 0.000575418 0.35866 -1.72418 6.32546 40.9123 -69.5721 -37.8662 83.8619 17.419 -6.66509 69.8533 0.58676 0.000331274 0.0646654 -16.467 2.35655 100.842 -6.26419 60.0759 -8.47738 1.49411 -9.59827 -0.915755 1.64764 -6.28477 9.24973 -56.9868 2.19898 86.1414 6.78506 79.6123 -24.9723 -3.8927 -1.70363 0.725242 -21.874 35.2689 36.2178 
-287.586 89.5574 -267.337 51.9765 -42.7861 -27.5508 -167.699 16.5848 174.284 -3.88513 25.3917 0.832159 -154.494 15.3689 174.07 -153.061 55.3072 -164.795 0.690581 -11.811 -31.974 -87.6161 49.6458 -50.8038 11.5526 2.61739 -76.8851 0.420957 0.000575418 0.35866 -1.79071 6.02265 44.0016 -63.6842 -37.8257 83.3935 15.0353 -9.13335 59.6219 0.58676 0.000331274 0.0646654 -24.0541 -0.27788 101.286 -7.7548 63.9009 -7.89485 1.92771 -17.5716 -1.44743 2.93038 -9.47118 14.3504 -42.6588 -0.112275 86.9021 157.036 84.5488 -175.252 -11.2365 2.44298 1.6514 -1.87465 -5.27133 20.5099 
-280.542 88.4657 -258.688 53.8803 -39.8541 -27.2816 -165.887 19.0823 171.429 -3.39313 22.5227 0.664205 -156.629 15.3158 172.687 -154.191 55.0516 -167.091 0.192497 -14.0741 -32.5704 -87.3893 44.6126 -56.9574 11.2066 1.38071 -82.4448 0.420957 0.000575418 0.35866 -1.91518 5.85222 47.2339 -61.321 -37.2199 76.9313 17.9715 -12.4351 56.4373 0.58676 0.000331274 0.0646654 -31.8411 -4.72357 99.3514 -8.11888 64.2042 -8.94545 3.2062 -22.3107 -1.67039 5.33662 -13.4979 17.5225 -25.0405 -1.87725 86.5898 167.414 76.6776 176.849 -15.8138 2.5887 2.35011 3.46786 -25.5882 3.46035 
-272.704 88.374 -248.997 57.0767 -36.2281 -22.296 -166.883 22.5846 173.1 -4.68413 18.5453 1.5237 -153.498 15.3731 172.307 -153.614 55.0999 -167.77 0.34822 -13.7806 -30.1634 -86.6855 44.8312 -63.2165 12.7087 -0.00474165 -89.3059 0.420957 0.000575418 0.35866 -1.9178 5.5119 49.2456 -59.2753 -38.036 66.9967 15.4927 -10.1755 57.4869 0.58676 0.000331274 0.0646654 -42.9099 -5.93618 93.4849 -7.09459 61.0584 -10.6829 2.51193 -21.8314 -1.69033 9.00133 -18.7098 17.5279 -13.0142 -3.75002 83.3905 157.619 82.6258 -170.169 -11.2843 -2.55696 1.55823 2.24884 -17.8513 -10.333 
-262.847 88.9946 -239.259 58.2016 -37.6957 -22.1929 -163.726 24.1679 174.026 -2.40432 17.0089 1.01016 -150.235 15.19 176.573 -154.898 54.9403 -165.178 0.718029 -12.0716 -28.6216 -86.815 45.8529 -64.3765 12.616 -1.95289 -97.8616 0.420957 0.000575418 0.35866 -1.97741 6.29215 46.0752 -60.5229 -41.8813 58.5853 17.8577 -9.88549 61.9221 0.58676 0.000331274 0.0646654 -56.7367 -5.56654 92.1604 -5.01068 53.2432 -11.7916 -1.30417 -11.8973 -1.00266 14.0052 -26.562 10.8536 -7.30701 -3.03977 84.407 12.4427 79.2162 -19.1648 -8.45631 -1.50546 1.24944 2.01403 -25.0155 -18.0465 
-253.246 90.4919 -228.543 59.1164 -39.0524 -20.4743 -160.59 25.6217 174.658 -0.170237 15.64 1.88034 -146.477 15.2646 177.634 -153.378 54.7622 -166.052 0.873259 -11.2642 -27.9946 -86.4882 45.9338 -62.4116 17.8213 -5.59547 -106.058 0.420957 0.000575418 0.35866 -1.91834 6.81878 43.0397 -61.2109 -45.4427 53.9928 17.5519 -9.30358 62.936 0.58676 0.000331274 0.0646654 -67.8175 -2.16447 91.4902 -3.78958 45.675 -12.5661 -5.71748 3.27578 1.0664 11.3915 -23.7696 -1.1097 -11.0104 -0.996783 80.946 1.8272 49.6873 -4.47959 -5.46961 7.81095 0.624539 2.14179 -23.4681 -16.6169 
-243.8 91.5032 -217.62 61.4969 -38.6496 -19.8216 -158.913 26.6939 172.022 0.150288 14.978 2.60231 -142.695 15.1578 173.831 -148.848 54.5359 -170.162 0.889686 -11.24 -27.0435 -83.2459 47.5682 -61.3447 19.5744 -8.64556 -112.082 0.420957 0.000575418 0.35866 -1.62778 5.52698 44.7229 -64.3273 -42.8565 48.3296 17.2359 -7.88224 66.1552 0.58676 0.000331274 0.0646654 -72.1849 -2.91637 88.3079 -4.24005 48.1449 -13.9548 -5.28397 11.8666 2.04856 2.77122 -6.06307 0.181814 -21.0348 0.427122 83.3301 3.03546 17.8005 5.59942 2.35033 20.9929 -2.1772 2.33544 -17.7124 -26.2199 
-234.91 91.421 -207.709 63.1076 -37.2429 -19.1163 -156.365 26.5357 170.348 2.11006 14.4586 3.93702 -141.058 16.6164 173.667 -148.829 56.0392 -170.081 0.817498 -11.655 -27.1589 -77.9066 49.2173 -65.1932 19.2878 -8.1362 -111.187 0.420957 0.000575418 0.35866 -1.44091 5.08292 43.6205 -69.5988 -40.9547 46.7777 16.8612 -6.59712 69.2134 0.58676 0.000331274 0.0646654 -67.0627 -3.46857 86.7993 -6.36295 62.2074 -4.88167 -5.63538 4.54538 1.21327 1.08167 -4.17003 5.33853 -20.9807 -1.1667 82.8011 4.53035 18.031 -1.21046 3.59089 23.2706 -2.80506 2.65414 -10.7931 -19.7537 
-226.263 90.6441 -198.312 66.6872 -37.7138 -16.9549 -160.203 25.746 172.698 1.45077 15.1017 3.18751 -139.859 18.2494 173.966 -149.251 57.7877 -168.757 0.469665 -13.4073 -28.7892 -76.503 49.7151 -64.806 19.686 -5.57134 -104.381 0.420957 0.000575418 0.35866 -1.47358 5.01653 44.4039 -73.0139 -38.2472 49.4557 16.6944 -5.59629 71.9322 0.58676 0.000331274 0.0646654 -59.3209 -2.32191 88.2274 -13.8875 75.8242 7.56726 -1.4685 1.34983 0.221577 3.97789 -10.3033 9.05941 -23.0941 -2.36316 73.8473 2.09126 30.3559 4.12094 8.20433 20.0564 -3.86642 0.126317 5.94623 -3.9528 
-218.038 88.7581 -188.941 71.0467 -39.5504 -12.0076 -167.516 24.6125 177.351 -0.688017 15.8284 3.39269 -139.472 19.4665 174.043 -149.888 59.0701 -168.051 0.318411 -13.8916 -30.4642 -78.5384 50.1729 -62.0273 22.7719 -2.66759 -95.581 0.420957 0.000575418 0.35866 -1.59715 5.08338 46.0959 -73.1946 -33.3842 56.3997 16.587 -4.69382 74.524 0.58676 0.000331274 0.0646654 -50.0933 1.64694 88.3332 -45.1896 84.9413 43.8559 1.27371 -2.53337 -0.424255 7.65096 -16.4925 7.39327 -28.7782 0.634671 72.2971 2.42667 44.2248 3.10901 -4.74359 -1.43322 0.813436 -0.0010306 5.00524 -2.94406 
-210.37 87.5156 -179.433 72.8704 -42.252 -7.79824 -172.481 21.9079 -177.871 -1.72497 17.807 3.77756 -141.831 21.0729 173.06 -149.73 60.4505 -171.639 0.26896 -13.9359 -31.3772 -76.2371 51.1218 -63.5828 27.3485 2.12998 -85.2094 0.420957 0.000575418 0.35866 -1.61565 5.24797 45.4479 -74.2263 -31.8008 65.6238 17.3696 -4.73211 75.1049 0.58676 0.000331274 0.0646654 -38.2119 6.27441 86.2771 -85.802 86.1493 84.1068 1.36172 -7.53965 -0.769944 6.91924 -15.3675 9.82631 -34.7016 9.12786 75.1666 2.59831 50.993 -1.70098 -10.5981 -13.5007 1.32539 2.24829 0.336612 -13.9346 
-202.69 87.8206 -171.279 65.9086 -45.7576 -13.1067 -169.38 18.8026 -177.174 -1.15432 20.9713 4.26365 -144.176 22.3373 173.154 -151.728 61.7889 -171.175 0.195585 -13.9097 -33.5295 -78.0169 51.3802 -58.9088 27.9674 4.86508 -80.274 0.420957 0.000575418 0.35866 -1.64678 5.78378 42.9573 -75.2874 -32.5144 75.2055 19.1013 -4.93247 75.9509 0.58676 0.000331274 0.0646654 -22.6854 8.33139 86.8246 -22.9315 81.6211 22.3828 0.565654 -8.41587 -0.785413 8.67192 -18.2487 14.2623 -35.6002 14.6178 80.1274 2.78393 55.1925 -4.55871 -12.0738 -16.7916 1.24916 2.07096 -7.81582 -11.9734 
-194.656 88.5667 -163.207 64.3772 -47.1849 -16.9167 -171.619 17.7501 -178.516 -4.88138 22.2078 2.94545 -141.22 22.223 170.181 -151.788 62.2223 -169.753 0.421548 -13.1964 -31.272 -82.7512 54.5658 -49.8206 22.7702 3.42897 -81.2346 0.420957 0.000575418 0.35866 -1.65339 5.92725 42.6019 -73.7415 -33.3515 81.335 23.7553 -3.41827 82.08 0.58676 0.000331274 0.0646654 -17.2805 6.62814 88.8555 -5.26286 63.8248 3.40169 -1.709 -4.97062 -0.333833 7.0667 -15.8029 13.6439 -36.925 11.3991 81.8006 5.55687 65.9164 -5.83059 -2.07142 -10.7008 1.05599 1.71451 -14.9417 3.63608 
-186.574 89.959 -154.695 64.449 -48.2454 -20.0787 -171.557 16.531 177.856 -3.29141 23.2027 2.71937 -141.739 22.8336 169.933 -153.503 63.1465 -166.006 0.26314 -14.119 -30.3169 -83.4129 55.6475 -47.3219 22.7224 2.61631 -83.1144 0.420957 0.000575418 0.35866 -1.54589 5.85696 41.237 -73.3152 -35.5761 84.0979 25.7832 -0.294125 89.1431 0.58676 0.000331274 0.0646654 -22.0108 3.72389 88.8721 -2.89902 37.8923 -12.6962 -11.7395 10.4738 3.31258 7.60688 -16.7361 17.2248 -35.6979 5.6441 82.0178 11.5249 75.5829 -10.9615 -13.5996 10.0708 2.30892 4.49035 -24.7107 21.9644 
-177.817 90.0053 -146.507 65.7021 -51.9055 -21.2487 -173.863 16.0983 177.487 -1.97372 24.0082 1.80903 -142.937 23.1489 173.713 -158.214 63.3068 -159.788 -0.0747659 -15.3692 -32.0619 -85.9034 53.7235 -43.3841 22.9737 0.995156 -86.9536 0.420957 0.000575418 0.35866 -1.44138 5.69268 40.4291 -71.0237 -36.769 85.3503 25.5079 2.58 95.087 0.58676 0.000331274 0.0646654 -26.0429 3.18586 88.6575 -2.93624 31.7529 -18.2647 -12.5553 13.1247 3.98499 9.21622 -19.1024 11.7412 -32.8142 3.46903 85.1154 21.3924 81.6395 -22.9699 -10.178 5.84942 1.52779 2.27268 -18.4061 -2.57212 
-169.344 88.7676 -138.676 65.7908 -56.029 -23.2825 -176.328 16.8641 176.435 -3.12638 23.6566 1.51822 -140.68 21.3671 174.756 -156.078 61.5134 -159.295 0.0645706 -14.7764 -31.9019 -85.8669 52.3036 -45.2461 24.1009 0.231043 -88.7696 0.420957 0.000575418 0.35866 -1.56247 5.75945 42.3622 -68.987 -35.0402 84.5594 25.9266 3.0165 95.8426 0.58676 0.000331274 0.0646654 -27.6941 3.43778 90.7376 -3.83354 41.257 -19.4196 -9.72649 10.8205 2.9184 7.63938 -16.5833 10.5973 -26.4422 1.66567 85.3834 13.5023 80.6819 -23.1216 -19.6603 -0.800057 2.62547 2.50104 -21.3947 -5.74552 
-161.27 86.7309 -131.064 66.1974 -57.9393 -24.2681 -177.262 18.6996 175.48 -3.01238 22.1982 1.68627 -140.297 19.479 176.327 -153.389 59.452 -160.225 0.0741525 -14.8232 -31.6574 -82.9834 50.3155 -52.7405 25.0187 -0.0891639 -89.476 0.420957 0.000575418 0.35866 -1.83167 6.62574 42.5633 -70.791 -35.7751 80.6887 24.6082 1.0866 92.0339 0.58676 0.000331274 0.0646654 -27.8378 3.09514 93.9799 -5.9377 57.3495 -11.3929 1.36908 -6.43503 -0.695826 2.21433 -4.91687 0.314349 -19.6724 -0.534839 83.4649 6.01425 71.8038 -13.1295 -13.8385 -4.64708 1.74475 2.27356 -19.7625 -13.4155 
-153.738 85.475 -123.199 66.8579 -59.2606 -26.2186 -177.308 20.8192 172.813 -1.27652 21.0018 0.526839 -143.031 17.3724 175.695 -151.122 57.2236 -163.794 -0.347228 -16.5937 -32.5495 -81.1009 44.813 -58.2521 25.9724 -0.743383 -90.8016 0.420957 0.000575418 0.35866 -2.01153 6.65182 45.0724 -73.9002 -34.4564 76.8937 22.9897 -1.77151 85.4988 0.58676 0.000331274 0.0646654 -32.2473 2.06902 99.7755 -8.3016 65.4251 -6.323 7.7102 -16.1097 -1.27231 1.23307 -4.5037 5.48482 -17.4117 -2.18683 80.2465 1.6087 52.375 -7.88147 -7.23882 1.2369 1.06721 2.12375 -11.8911 -11.6071 
-146.601 86.0546 -114.474 66.596 -57.282 -25.2781 -176.788 23.4707 173.695 0.704622 18.2309 0.914517 -146.859 16.6838 178.006 -153.64 56.3978 -163.339 -0.566365 -17.6775 -32.2829 -79.7768 43.187 -63.3883 22.6993 -0.397529 -90.2327 0.420957 0.000575418 0.35866 -2.11557 6.79627 45.6528 -76.9696 -34.5938 72.2806 19.6593 -4.01741 78.6541 0.58676 0.000331274 0.0646654 -37.1408 0.311408 98.8087 -11.4973 69.4818 -8.29791 1.82602 -20.3525 -1.63609 3.63513 -10.6006 14.5518 -21.2279 -2.19125 75.5477 3.4878 26.6874 5.52485 2.26618 19.4076 -2.00043 2.87106 -7.91919 -20.5289 
-138.796 86.2323 -105.23 62.1073 -58.931 -27.8075 -175.338 23.5099 176.178 1.41324 17.9605 1.21263 -145.268 16.3815 179.101 -151.406 55.907 -163.868 -0.402033 -17.0607 -31.8751 -77.0283 45.3844 -66.9257 24.0662 -0.861803 -91.2031 0.420957 0.000575418 0.35866 -2.12197 6.52652 46.9301 -77.3364 -32.6871 65.4139 17.2138 -3.63261 78.1989 0.58676 0.000331274 0.0646654 -38.7145 4.93099 102.651 -20.3538 78.0054 6.24574 -1.78344 -14.6024 -1.25504 6.55819 -14.3841 4.77759 -22.1549 2.61844 80.7076 5.88108 16.8015 -3.52232 7.86026 24.7755 -4.43693 3.79902 0.915464 -23.0859 
-132.005 86.4965 -96.4685 62.7216 -56.5631 -27.5065 -174.007 24.8499 176.213 1.97759 16.2329 1.72966 -142.985 16.39 178.152 -147.253 55.7251 -165.904 -0.456627 -17.1035 -32.5463 -74.3689 45.6434 -69.5349 22.0179 -1.3858 -92.6749 0.420957 0.000575418 0.35866 -2.03907 6.55305 45.5335 -78.1259 -34.6832 62.6283 18.1456 -4.10844 77.4672 0.58676 0.000331274 0.0646654 -36.404 4.59445 102.484 -50.8434 84.133 37.3653 -2.16166 6.27485 0.792058 9.34064 -19.4915 3.55209 -19.5246 -2.45967 66.6605 1.885 29.9118 5.23916 4.80062 25.375 -3.45168 0.551705 6.06677 -5.98968 
